<svg width="96" height="96" viewBox="0 0 480 480" fill="none" xmlns="http://www.w3.org/2000/svg">
<path d="M81.2031 332.922L81.0078 329.797V327.062C81.0078 326.151 80.9427 325.63 80.8125 325.5C80.6823 325.37 80.6172 325.174 80.6172 324.914C80.6172 324.003 80.6823 323.417 80.8125 323.156C80.9427 322.766 81.0078 322.44 81.0078 322.18C81.0078 321.789 80.9427 321.398 80.8125 321.008C80.6823 320.487 80.6172 320.031 80.6172 319.641C80.6172 318.599 80.487 317.818 80.2266 317.297C80.2266 316.646 80.2266 316.06 80.2266 315.539C80.3568 315.018 80.4219 314.432 80.4219 313.781C80.5521 312.479 80.5521 311.698 80.4219 311.438C80.4219 311.047 80.2917 310.786 80.0312 310.656V308.312C79.7708 307.271 79.6406 306.685 79.6406 306.555C79.7708 306.424 79.7708 306.229 79.6406 305.969C79.6406 305.188 79.4453 304.471 79.0547 303.82C79.3151 303.43 79.3802 302.844 79.25 302.062C79.25 301.151 79.3151 300.305 79.4453 299.523C79.7057 299.263 80.0312 299.003 80.4219 298.742C80.8125 298.482 81.2031 298.352 81.5938 298.352C81.9844 298.352 82.3099 298.482 82.5703 298.742C82.8307 299.003 83.1562 299.263 83.5469 299.523C85.1094 299.914 86.0859 300.24 86.4766 300.5C86.8672 300.63 87.2578 300.826 87.6484 301.086C89.0807 301.737 89.9922 302.062 90.3828 302.062C90.7734 302.062 91.2943 302.258 91.9453 302.648C92.3359 302.648 92.7266 302.648 93.1172 302.648C93.638 302.648 94.0938 302.779 94.4844 303.039C95.6562 303.69 96.4375 304.016 96.8281 304.016C98 304.536 98.9115 304.927 99.5625 305.188C100.344 305.057 100.995 305.057 101.516 305.188C102.167 305.188 102.753 305.188 103.273 305.188C103.924 305.188 104.641 305.057 105.422 304.797C106.984 304.667 108.026 304.602 108.547 304.602C109.068 304.602 109.589 304.732 110.109 304.992C110.76 304.732 111.281 304.602 111.672 304.602C112.062 304.602 112.453 304.536 112.844 304.406C113.495 304.146 114.016 303.885 114.406 303.625C114.927 303.234 115.643 303.039 116.555 303.039C116.945 302.779 117.466 302.583 118.117 302.453C118.768 302.193 119.224 301.802 119.484 301.281C120.396 300.5 121.047 300.109 121.438 300.109C121.958 298.938 122.74 297.961 123.781 297.18C123.781 296.138 123.911 295.161 124.172 294.25C124.562 293.339 124.823 292.362 124.953 291.32C124.953 290.93 124.953 290.474 124.953 289.953C124.953 289.432 125.018 288.911 125.148 288.391C125.148 287.219 125.214 286.307 125.344 285.656L125.148 280.188C125.018 279.276 124.888 278.365 124.758 277.453C124.758 276.542 124.758 275.565 124.758 274.523V271.789C124.758 271.398 124.693 271.008 124.562 270.617C124.562 270.227 124.562 269.901 124.562 269.641C124.432 267.297 124.367 265.409 124.367 263.977C124.367 262.544 124.367 261.112 124.367 259.68C124.107 257.206 124.107 254.862 124.367 252.648C124.367 252.258 124.367 251.867 124.367 251.477C124.497 251.086 124.562 250.63 124.562 250.109C124.302 248.807 124.172 247.961 124.172 247.57C124.302 247.18 124.367 246.854 124.367 246.594C124.237 245.031 124.172 244.185 124.172 244.055C124.302 243.794 124.237 243.534 123.977 243.273C124.367 242.102 124.432 241.516 124.172 241.516C123.911 241.385 123.911 241.19 124.172 240.93C124.302 240.279 124.302 239.758 124.172 239.367C124.172 238.846 124.237 238.326 124.367 237.805C124.628 235.852 124.693 234.419 124.562 233.508C124.562 232.596 124.562 231.815 124.562 231.164C124.302 230.383 124.302 229.276 124.562 227.844C124.562 226.151 124.497 225.109 124.367 224.719C124.237 224.328 124.172 223.938 124.172 223.547C123.911 221.724 123.716 220.552 123.586 220.031C123.456 218.99 123.391 217.948 123.391 216.906C123.521 215.734 123.521 214.628 123.391 213.586C123.26 212.544 123.065 211.438 122.805 210.266C122.674 209.094 122.479 207.857 122.219 206.555C122.219 206.034 122.154 205.578 122.023 205.188C122.023 204.797 122.023 204.341 122.023 203.82C121.893 203.299 121.828 202.844 121.828 202.453C121.828 201.932 121.828 201.477 121.828 201.086C121.698 200.174 121.503 199.328 121.242 198.547C120.982 197.766 120.982 196.854 121.242 195.812L126.32 194.445C127.102 194.445 127.818 194.51 128.469 194.641C129.12 194.771 129.771 194.836 130.422 194.836C130.682 194.836 131.008 194.771 131.398 194.641C131.789 194.51 132.18 194.38 132.57 194.25C132.961 193.99 133.417 193.99 133.938 194.25C134.458 194.38 135.044 194.51 135.695 194.641L138.43 194.836C138.82 194.966 139.211 195.031 139.602 195.031C139.992 194.901 140.513 194.771 141.164 194.641C142.336 194.38 142.922 194.315 142.922 194.445C143.052 194.445 143.247 194.445 143.508 194.445C144.94 194.445 145.917 194.38 146.438 194.25C147.089 194.12 147.609 194.185 148 194.445C149.823 194.445 150.93 194.576 151.32 194.836C151.841 194.966 152.427 195.031 153.078 195.031C154.38 194.901 155.096 194.771 155.227 194.641C155.487 194.51 155.747 194.445 156.008 194.445C157.44 194.966 158.286 195.357 158.547 195.617C158.807 195.878 159.133 196.073 159.523 196.203C159.523 196.854 159.719 197.375 160.109 197.766C160.5 198.026 160.76 198.417 160.891 198.938C161.021 199.328 161.021 199.784 160.891 200.305C160.891 200.826 160.891 201.216 160.891 201.477C160.76 203.43 160.63 204.797 160.5 205.578C160.37 206.229 160.305 206.88 160.305 207.531C160.174 208.703 160.109 209.484 160.109 209.875C160.24 210.266 160.24 210.656 160.109 211.047C159.849 211.958 159.719 212.544 159.719 212.805C159.849 213.065 159.914 213.326 159.914 213.586C159.654 214.497 159.523 215.083 159.523 215.344C159.654 215.604 159.654 215.865 159.523 216.125C159.263 217.557 159.133 218.534 159.133 219.055C159.133 219.445 159.133 219.771 159.133 220.031C159.003 221.073 158.938 222.31 158.938 223.742C158.938 225.044 158.872 226.411 158.742 227.844C158.742 228.365 158.742 228.885 158.742 229.406C158.742 229.927 158.677 230.513 158.547 231.164C158.156 232.336 157.961 233.247 157.961 233.898C158.091 234.419 158.091 234.94 157.961 235.461C158.091 237.154 158.091 238.26 157.961 238.781C157.831 239.172 157.766 239.628 157.766 240.148C157.766 240.93 157.766 241.906 157.766 243.078C157.766 243.469 157.766 243.859 157.766 244.25C157.896 244.641 157.961 245.031 157.961 245.422C158.091 246.203 158.156 247.049 158.156 247.961C158.156 248.742 158.156 249.654 158.156 250.695C158.156 251.216 158.091 251.737 157.961 252.258C157.961 252.648 157.961 253.169 157.961 253.82C157.961 255.383 157.961 256.294 157.961 256.555C158.091 256.815 158.156 257.076 158.156 257.336C157.896 258.768 157.831 259.615 157.961 259.875C158.091 260.135 158.156 260.331 158.156 260.461C158.026 262.023 157.896 263.456 157.766 264.758C157.766 265.93 157.831 267.232 157.961 268.664C158.221 269.966 158.286 270.617 158.156 270.617C158.156 270.617 158.156 270.682 158.156 270.812C158.156 271.724 158.091 272.44 157.961 272.961C157.961 273.352 157.961 273.872 157.961 274.523C157.961 275.174 157.961 275.826 157.961 276.477C157.961 276.997 158.026 277.518 158.156 278.039C158.286 279.992 158.286 281.229 158.156 281.75C158.026 282.141 158.091 282.531 158.352 282.922C158.091 284.224 157.961 285.07 157.961 285.461C157.961 286.763 157.961 287.609 157.961 288C158.091 288.26 158.156 288.521 158.156 288.781C158.286 289.562 158.352 290.539 158.352 291.711C158.352 292.883 158.482 294.055 158.742 295.227C158.482 295.747 158.286 296.203 158.156 296.594C158.156 296.984 158.091 297.44 157.961 297.961C157.961 298.612 157.896 299.328 157.766 300.109C157.635 300.76 157.57 301.346 157.57 301.867C157.57 302.779 157.505 303.299 157.375 303.43C157.245 303.56 157.115 303.755 156.984 304.016C156.854 304.797 156.789 305.448 156.789 305.969C156.789 306.359 156.724 306.75 156.594 307.141C156.464 307.531 156.268 307.922 156.008 308.312C155.878 308.573 155.943 308.964 156.203 309.484C155.552 310.135 155.161 310.852 155.031 311.633C155.031 312.284 154.901 312.935 154.641 313.586C154.38 314.237 153.859 315.083 153.078 316.125C152.036 317.297 151.385 317.948 151.125 318.078C150.995 318.078 150.93 318.273 150.93 318.664C150.409 318.924 150.018 319.25 149.758 319.641C149.497 320.031 149.172 320.357 148.781 320.617C147.87 321.529 147.349 322.115 147.219 322.375C147.089 322.505 146.893 322.57 146.633 322.57C145.591 323.872 144.94 324.654 144.68 324.914C144.549 325.174 144.354 325.435 144.094 325.695C142.661 326.607 141.75 327.128 141.359 327.258C140.318 328.169 139.732 328.69 139.602 328.82L137.062 330.773C136.021 331.164 135.305 331.555 134.914 331.945C133.482 332.596 132.375 333.117 131.594 333.508C130.943 333.768 130.292 334.094 129.641 334.484C128.859 334.745 128.143 334.94 127.492 335.07C126.971 335.201 126.516 335.396 126.125 335.656C124.693 335.917 123.716 336.047 123.195 336.047C122.805 335.917 122.479 335.917 122.219 336.047C120.526 336.568 119.68 336.828 119.68 336.828C118.898 336.958 118.247 336.958 117.727 336.828C117.336 336.698 116.815 336.698 116.164 336.828C114.602 337.349 113.104 337.609 111.672 337.609C110.24 337.87 109.328 338 108.938 338C108.547 337.87 108.221 337.87 107.961 338C106.919 338.13 106.268 338.13 106.008 338C105.878 338 105.682 338 105.422 338C104.641 338 103.859 338 103.078 338C102.427 337.87 101.776 337.74 101.125 337.609C99.8229 337.479 99.1068 337.479 98.9766 337.609C98.8464 337.609 98.651 337.544 98.3906 337.414C97.4792 337.414 96.8932 337.414 96.6328 337.414C96.3724 337.284 96.1771 337.219 96.0469 337.219C95.6562 337.219 95.2656 337.284 94.875 337.414C94.4844 337.414 93.8984 337.349 93.1172 337.219C91.4245 336.828 89.9271 336.503 88.625 336.242C87.7135 335.852 87.1276 335.721 86.8672 335.852C86.737 335.852 86.5417 335.786 86.2812 335.656C85.7604 335.526 85.3047 335.396 84.9141 335.266C84.5234 335.005 84.0677 334.875 83.5469 334.875C82.6354 333.833 82.0495 333.312 81.7891 333.312C81.5286 333.312 81.3333 333.182 81.2031 332.922ZM390.969 286.242C390.188 286.112 389.406 286.112 388.625 286.242C387.974 286.372 387.323 286.372 386.672 286.242C385.5 285.721 384.784 285.461 384.523 285.461C384.263 285.331 384.133 285.135 384.133 284.875C382.831 285.005 382.115 284.94 381.984 284.68C381.984 284.419 381.854 284.289 381.594 284.289C379.901 284.029 378.599 283.573 377.688 282.922C376.385 282.531 375.539 282.336 375.148 282.336C374.758 282.206 374.432 282.141 374.172 282.141C373.521 281.88 372.609 281.88 371.438 282.141C370.526 282.271 369.875 282.271 369.484 282.141C369.224 282.01 368.964 281.945 368.703 281.945C367.922 282.076 367.271 282.141 366.75 282.141C366.359 282.01 365.969 281.945 365.578 281.945C364.406 281.945 363.69 282.01 363.43 282.141C363.169 282.141 362.909 282.141 362.648 282.141C361.346 281.88 360.435 281.75 359.914 281.75C358.091 281.62 356.464 281.88 355.031 282.531C354.25 282.271 353.469 282.271 352.688 282.531C352.036 282.792 351.385 282.987 350.734 283.117C350.214 283.117 349.693 283.052 349.172 282.922C348.781 282.792 348.26 282.857 347.609 283.117C347.349 283.378 347.219 283.833 347.219 284.484C347.219 285.135 347.349 285.656 347.609 286.047C347.349 286.698 347.219 287.349 347.219 288C347.349 288.521 347.414 289.107 347.414 289.758C347.154 291.451 346.958 292.492 346.828 292.883C346.828 293.404 346.828 293.924 346.828 294.445C346.958 294.836 346.958 295.292 346.828 295.812C346.828 297.505 346.893 298.612 347.023 299.133C347.154 299.654 347.219 300.24 347.219 300.891C346.568 302.714 346.307 303.951 346.438 304.602C346.828 305.773 347.089 306.49 347.219 306.75C347.349 306.88 347.414 307.076 347.414 307.336C347.154 309.289 347.023 310.721 347.023 311.633C347.154 312.414 347.219 313.26 347.219 314.172C347.219 314.693 347.154 315.214 347.023 315.734C347.023 316.125 347.023 316.646 347.023 317.297C347.544 318.99 347.74 320.096 347.609 320.617C347.609 321.138 347.609 321.659 347.609 322.18C347.74 322.961 347.87 323.742 348 324.523C348.26 325.305 348.391 326.086 348.391 326.867C348.521 327.909 348.456 328.951 348.195 329.992C348.065 330.904 348.13 331.88 348.391 332.922C348.391 333.312 348.456 333.768 348.586 334.289C348.846 334.68 348.977 335.005 348.977 335.266C348.977 336.177 348.781 336.958 348.391 337.609C348.13 338.26 347.805 338.911 347.414 339.562C346.763 339.562 346.177 339.628 345.656 339.758C345.135 339.888 344.68 339.823 344.289 339.562C343.378 339.823 342.466 339.888 341.555 339.758C340.643 339.758 339.732 339.888 338.82 340.148C338.299 339.888 337.583 339.758 336.672 339.758C336.021 339.628 335.24 339.562 334.328 339.562C333.547 339.693 332.635 339.758 331.594 339.758C331.203 339.628 330.617 339.628 329.836 339.758C329.185 339.888 328.794 339.953 328.664 339.953C327.492 339.562 326.516 339.302 325.734 339.172C325.083 339.172 324.432 339.172 323.781 339.172C323.26 339.042 322.609 338.977 321.828 338.977C321.047 339.107 320.396 339.172 319.875 339.172C318.182 339.042 317.076 338.781 316.555 338.391C316.164 338.13 315.643 338.065 314.992 338.195L313.234 336.828C312.062 335.786 311.477 335.201 311.477 335.07C310.826 333.508 310.565 332.401 310.695 331.75C310.826 331.099 311.021 330.448 311.281 329.797C311.411 329.276 311.477 328.82 311.477 328.43C311.477 328.039 311.542 327.518 311.672 326.867C311.802 326.607 311.802 326.216 311.672 325.695C311.672 325.174 311.672 324.654 311.672 324.133C311.672 323.612 311.672 323.156 311.672 322.766C311.802 322.375 311.932 321.919 312.062 321.398C312.193 320.487 312.258 319.445 312.258 318.273C312.258 317.102 312.388 316.125 312.648 315.344C312.909 314.172 312.974 313.326 312.844 312.805C312.844 312.284 312.844 311.893 312.844 311.633C312.714 310.721 312.648 310.201 312.648 310.07C312.779 309.94 312.844 309.745 312.844 309.484C312.714 307.922 312.714 306.815 312.844 306.164C312.974 305.383 313.039 304.471 313.039 303.43C312.909 301.867 312.844 300.956 312.844 300.695C312.974 300.305 313.039 299.979 313.039 299.719C313.039 299.068 312.974 298.482 312.844 297.961C312.844 297.31 312.779 296.659 312.648 296.008C312.648 295.487 312.583 295.031 312.453 294.641C312.453 294.25 312.388 293.794 312.258 293.273C312.258 292.362 312.323 291.776 312.453 291.516C312.583 291.125 312.648 290.799 312.648 290.539C312.779 290.018 312.779 289.432 312.648 288.781C312.648 288 312.714 287.414 312.844 287.023C312.844 286.112 312.844 285.396 312.844 284.875C312.844 284.354 312.779 283.768 312.648 283.117C312.388 281.815 312.258 280.839 312.258 280.188C312.388 279.276 312.453 278.43 312.453 277.648C312.583 276.867 312.583 276.021 312.453 275.109C312.453 274.719 312.453 274.328 312.453 273.938C312.453 273.417 312.388 272.896 312.258 272.375C312.258 271.984 312.193 271.594 312.062 271.203C312.062 270.812 312.062 270.357 312.062 269.836C312.062 269.445 312.062 269.055 312.062 268.664C312.062 268.143 312.128 267.688 312.258 267.297V264.562C312.388 264.172 312.518 263.846 312.648 263.586C312.779 263.195 312.844 262.805 312.844 262.414C312.583 260.852 312.583 259.81 312.844 259.289C313.104 258.117 313.039 257.076 312.648 256.164C312.909 255.904 312.974 255.643 312.844 255.383C312.844 254.992 312.909 254.536 313.039 254.016C313.039 253.365 313.104 252.714 313.234 252.062C313.495 251.411 313.56 250.76 313.43 250.109C312.779 248.286 312.453 246.789 312.453 245.617C312.583 244.445 312.648 243.339 312.648 242.297C312.648 240.734 312.648 239.888 312.648 239.758C312.779 239.628 312.844 239.432 312.844 239.172C312.583 237.609 312.518 236.633 312.648 236.242C312.779 235.852 312.909 235.461 313.039 235.07C313.299 233.508 313.365 232.596 313.234 232.336C313.104 231.945 313.169 231.555 313.43 231.164V227.453C313.169 226.802 313.104 226.151 313.234 225.5C313.495 224.719 313.625 224.003 313.625 223.352C313.495 222.44 313.495 221.789 313.625 221.398C313.755 221.008 313.56 220.747 313.039 220.617C313.299 219.315 313.43 218.534 313.43 218.273C313.56 218.013 313.56 217.688 313.43 217.297L313.039 214.367C312.779 214.107 312.648 213.716 312.648 213.195C312.779 212.544 312.844 211.958 312.844 211.438C312.453 209.875 312.258 208.898 312.258 208.508C312.388 208.117 312.453 207.727 312.453 207.336C312.193 205.904 312.062 205.122 312.062 204.992C312.193 204.862 312.258 204.732 312.258 204.602C311.997 203.299 311.802 202.323 311.672 201.672C311.672 201.021 311.542 200.305 311.281 199.523C311.672 198.091 311.932 197.245 312.062 196.984C312.323 196.724 312.388 196.464 312.258 196.203C313.69 195.552 314.406 195.161 314.406 195.031C314.536 194.901 314.732 194.771 314.992 194.641C316.555 194.12 317.727 193.859 318.508 193.859C319.289 194.12 319.745 194.25 319.875 194.25C320.135 194.12 320.396 194.055 320.656 194.055C321.828 194.055 322.674 194.12 323.195 194.25C323.716 194.25 324.302 194.315 324.953 194.445C325.734 194.445 326.451 194.38 327.102 194.25C327.753 193.99 328.404 194.12 329.055 194.641C329.315 194.38 329.641 194.38 330.031 194.641C330.552 194.771 330.943 194.771 331.203 194.641L334.133 194.25C336.346 193.859 337.909 193.859 338.82 194.25C339.862 194.641 341.099 194.771 342.531 194.641C343.182 194.51 343.768 194.445 344.289 194.445C344.81 194.315 345.266 194.12 345.656 193.859C346.828 193.729 347.544 193.729 347.805 193.859C348.195 193.859 348.586 193.859 348.977 193.859C349.758 193.99 350.539 194.055 351.32 194.055C352.102 193.924 352.883 193.859 353.664 193.859C354.185 193.859 354.706 193.924 355.227 194.055C355.747 194.055 356.268 194.055 356.789 194.055C357.18 194.055 357.57 194.055 357.961 194.055C358.482 193.924 358.938 193.859 359.328 193.859C359.979 194.25 360.565 194.38 361.086 194.25C361.737 194.12 362.193 194.055 362.453 194.055C363.365 194.055 364.146 194.12 364.797 194.25C365.578 194.25 366.424 194.25 367.336 194.25C367.857 194.25 368.638 194.12 369.68 193.859C371.242 194.12 372.284 194.25 372.805 194.25C373.326 194.25 373.846 194.315 374.367 194.445C375.409 194.706 376.125 194.771 376.516 194.641C378.208 194.12 379.315 193.924 379.836 194.055C380.357 194.055 380.812 193.99 381.203 193.859C382.375 193.469 383.156 193.339 383.547 193.469C383.938 193.469 384.263 193.339 384.523 193.078L387.258 192.688C388.039 192.427 388.56 192.362 388.82 192.492C389.211 192.492 389.536 192.427 389.797 192.297C390.969 192.818 391.555 193.208 391.555 193.469C391.555 193.599 391.62 193.794 391.75 194.055C392.01 194.445 392.206 194.836 392.336 195.227C392.466 195.487 392.661 195.878 392.922 196.398C393.182 197.701 393.443 198.482 393.703 198.742C394.224 200.044 394.484 200.956 394.484 201.477C394.484 201.997 394.615 202.518 394.875 203.039C395.005 203.43 395.135 203.82 395.266 204.211C395.526 204.471 395.721 204.732 395.852 204.992C395.852 205.904 395.917 206.62 396.047 207.141C396.568 208.703 396.763 209.68 396.633 210.07C396.503 210.461 396.568 210.786 396.828 211.047C396.828 211.568 396.893 212.023 397.023 212.414C397.154 212.805 397.284 213.26 397.414 213.781C397.544 214.432 397.544 215.083 397.414 215.734C397.414 216.255 397.479 216.841 397.609 217.492C397.609 217.883 397.674 218.273 397.805 218.664C397.935 219.055 398.065 219.445 398.195 219.836C398.326 220.227 398.326 220.682 398.195 221.203C398.195 221.594 398.26 221.984 398.391 222.375C398.391 223.286 398.391 224.198 398.391 225.109C398.391 225.891 398.065 226.607 397.414 227.258C396.633 227.388 395.982 227.518 395.461 227.648C394.94 227.648 394.354 227.714 393.703 227.844C392.141 227.974 391.099 228.039 390.578 228.039C390.188 228.039 389.667 227.974 389.016 227.844C387.844 227.583 387.128 227.388 386.867 227.258C386.737 227.128 386.607 227.062 386.477 227.062L383.547 226.477C383.026 226.216 382.44 226.021 381.789 225.891C381.138 225.76 380.552 225.565 380.031 225.305C379.38 225.565 378.729 225.565 378.078 225.305C377.427 225.044 376.776 224.849 376.125 224.719C374.302 224.458 372.544 224.458 370.852 224.719H365.969C365.057 224.589 364.211 224.523 363.43 224.523C362.779 224.393 361.932 224.393 360.891 224.523C360.5 224.523 360.044 224.589 359.523 224.719C359.133 224.719 358.742 224.458 358.352 223.938C357.831 224.068 357.115 224.133 356.203 224.133C355.292 224.133 354.706 224.198 354.445 224.328C354.315 224.328 354.185 224.328 354.055 224.328C352.753 224.068 352.102 224.003 352.102 224.133C352.102 224.133 351.971 224.133 351.711 224.133C349.888 224.263 348.716 224.458 348.195 224.719C347.805 224.849 347.349 224.914 346.828 224.914L345.266 228.234C345.135 229.667 345.07 230.513 345.07 230.773C345.201 231.034 345.266 231.294 345.266 231.555C345.526 232.206 345.591 232.922 345.461 233.703C345.461 234.484 345.526 235.135 345.656 235.656C345.786 236.828 345.852 237.674 345.852 238.195C345.852 238.716 345.852 239.237 345.852 239.758C345.852 240.799 345.852 241.451 345.852 241.711C345.982 241.971 345.982 242.362 345.852 242.883C345.852 243.143 345.852 243.599 345.852 244.25C345.982 244.771 346.047 245.292 346.047 245.812C345.917 246.594 345.852 247.115 345.852 247.375C345.982 247.635 346.047 247.896 346.047 248.156C346.047 248.547 345.982 249.003 345.852 249.523C345.852 250.044 345.917 250.435 346.047 250.695C347.349 251.607 348.065 252.258 348.195 252.648C348.456 253.039 348.846 253.234 349.367 253.234C350.279 253.234 351.19 253.234 352.102 253.234C353.013 253.234 353.664 253.299 354.055 253.43C355.487 253.299 356.398 253.299 356.789 253.43C357.31 253.43 357.831 253.43 358.352 253.43C359.654 253.43 360.435 253.495 360.695 253.625C361.086 253.625 361.411 253.625 361.672 253.625C362.844 253.365 363.495 253.299 363.625 253.43C363.755 253.56 363.951 253.69 364.211 253.82C365.513 253.69 366.164 253.625 366.164 253.625C366.164 253.495 366.294 253.43 366.555 253.43C367.857 253.56 368.833 253.625 369.484 253.625C370.135 253.495 370.917 253.365 371.828 253.234C372.74 253.234 373.391 253.299 373.781 253.43C374.172 253.56 374.562 253.625 374.953 253.625C375.344 253.625 375.669 253.625 375.93 253.625C376.32 253.495 376.711 253.43 377.102 253.43C377.753 253.43 378.469 253.43 379.25 253.43C380.031 253.43 380.747 253.365 381.398 253.234C383.352 253.495 384.719 253.69 385.5 253.82C386.281 253.82 386.932 253.69 387.453 253.43C387.714 253.299 388.169 253.299 388.82 253.43C389.602 253.43 390.188 253.495 390.578 253.625C390.969 253.755 391.294 253.951 391.555 254.211C391.945 254.341 392.336 254.276 392.727 254.016C393.638 255.057 394.224 255.839 394.484 256.359C394.745 256.62 394.94 256.945 395.07 257.336C395.331 257.596 395.526 257.922 395.656 258.312C395.656 258.833 395.591 259.289 395.461 259.68C395.331 259.94 395.266 260.266 395.266 260.656C395.526 262.349 395.591 263.391 395.461 263.781C395.331 264.172 395.201 264.562 395.07 264.953C395.07 265.604 395.07 266.255 395.07 266.906C395.07 267.427 395.005 267.948 394.875 268.469C394.745 268.99 394.68 269.51 394.68 270.031C394.81 270.552 394.81 271.138 394.68 271.789C394.289 273.482 394.094 274.523 394.094 274.914C394.224 275.305 394.289 275.826 394.289 276.477C394.159 277.648 394.094 278.365 394.094 278.625C394.224 278.755 394.289 278.951 394.289 279.211C393.378 280.513 392.922 281.359 392.922 281.75C392.922 282.141 392.792 282.466 392.531 282.727C392.01 283.768 391.685 284.549 391.555 285.07C391.424 285.591 391.229 285.982 390.969 286.242Z" fill="#756036"/>
<path d="M189.109 242.719C189.76 241.807 189.826 240.701 189.305 239.398C189.044 238.487 188.979 237.966 189.109 237.836C189.24 237.706 189.24 237.51 189.109 237.25C188.979 236.208 188.979 235.492 189.109 235.102C189.24 234.581 189.24 234.06 189.109 233.539C189.109 232.497 189.109 231.977 189.109 231.977C189.24 231.846 189.305 231.651 189.305 231.391C189.305 230.609 189.24 230.154 189.109 230.023C189.109 229.763 189.109 229.503 189.109 229.242C189.24 228.201 189.24 227.615 189.109 227.484C189.109 227.354 189.109 227.224 189.109 227.094V223.773C189.109 222.341 189.109 221.234 189.109 220.453C189.24 218.76 189.24 217.654 189.109 217.133C188.979 216.482 188.979 215.896 189.109 215.375C188.979 213.943 188.914 212.836 188.914 212.055C188.914 211.143 188.914 210.427 188.914 209.906C189.044 207.693 189.044 206.065 188.914 205.023C188.914 203.982 188.979 203.135 189.109 202.484C189.37 201.312 189.37 200.01 189.109 198.578C189.109 197.927 189.109 197.276 189.109 196.625C189.24 195.974 189.24 195.323 189.109 194.672C188.979 193.24 188.979 192.393 189.109 192.133C188.979 191.352 188.849 190.831 188.719 190.57C188.589 190.31 188.523 190.049 188.523 189.789C188.523 189.138 188.523 188.617 188.523 188.227C188.654 187.706 188.654 187.25 188.523 186.859C188.523 185.948 188.458 185.362 188.328 185.102C188.198 184.841 188.133 184.581 188.133 184.32C187.872 182.888 187.742 181.911 187.742 181.391C187.612 179.307 187.547 177.615 187.547 176.312C187.677 175.01 187.612 173.839 187.352 172.797C187.352 172.406 187.286 172.016 187.156 171.625C187.026 171.234 186.961 170.844 186.961 170.453C186.961 169.932 186.961 169.411 186.961 168.891C187.091 168.24 187.221 167.589 187.352 166.938C187.612 166.286 187.742 165.701 187.742 165.18C187.872 164.529 188.068 164.073 188.328 163.812C189.5 163.161 190.021 162.771 189.891 162.641C189.891 162.38 190.021 162.185 190.281 162.055C190.672 161.924 190.997 161.729 191.258 161.469C191.518 161.208 191.844 160.948 192.234 160.688C193.536 160.557 194.188 160.492 194.188 160.492C194.318 160.362 194.513 160.297 194.773 160.297C195.555 160.427 196.206 160.492 196.727 160.492C197.378 160.362 197.964 160.427 198.484 160.688C198.745 160.427 199.07 160.362 199.461 160.492C199.852 160.492 200.307 160.492 200.828 160.492H203.367C203.888 161.013 204.409 161.273 204.93 161.273C205.451 161.273 206.036 161.273 206.688 161.273C208.12 161.404 209.292 161.339 210.203 161.078C211.115 160.818 212.026 160.688 212.938 160.688C213.589 160.688 214.174 160.753 214.695 160.883C215.216 161.013 215.672 160.948 216.062 160.688C216.583 160.948 217.169 161.078 217.82 161.078C218.602 161.078 219.318 161.143 219.969 161.273C221.271 161.534 222.508 161.534 223.68 161.273H225.828C226.479 161.273 227.065 161.339 227.586 161.469C228.237 161.469 228.888 161.469 229.539 161.469C231.102 161.339 231.883 161.273 231.883 161.273C232.404 161.273 232.924 161.273 233.445 161.273C234.096 161.273 234.812 161.339 235.594 161.469C237.156 161.599 237.938 161.729 237.938 161.859C238.068 161.859 238.198 161.859 238.328 161.859C238.719 161.859 239.174 161.859 239.695 161.859C240.216 161.729 240.607 161.794 240.867 162.055C242.43 161.924 243.276 161.924 243.406 162.055C243.667 162.055 243.927 162.055 244.188 162.055L247.508 162.641C248.68 162.641 249.331 162.706 249.461 162.836C249.591 162.966 249.786 162.966 250.047 162.836C251.089 163.487 251.74 163.812 252 163.812C252.26 163.682 252.521 163.682 252.781 163.812C253.302 164.073 253.693 164.398 253.953 164.789C254.344 165.049 254.734 165.115 255.125 164.984C256.036 165.896 256.492 166.286 256.492 166.156C256.492 166.026 256.622 166.091 256.883 166.352C257.273 166.872 257.599 167.198 257.859 167.328C258.12 167.458 258.38 167.589 258.641 167.719C259.422 168.63 259.878 169.151 260.008 169.281C260.138 169.281 260.203 169.411 260.203 169.672C261.505 170.714 262.156 171.234 262.156 171.234C262.938 171.755 263.458 172.211 263.719 172.602C263.979 172.992 264.435 173.188 265.086 173.188C265.737 174.359 266.323 174.945 266.844 174.945C266.844 175.336 266.974 175.661 267.234 175.922C267.625 176.052 267.82 176.443 267.82 177.094C268.602 177.615 269.188 178.07 269.578 178.461C270.099 179.112 270.62 179.698 271.141 180.219L272.508 181.977C273.289 182.888 273.745 183.474 273.875 183.734C274.266 184.255 274.591 184.841 274.852 185.492C275.242 186.013 275.438 186.534 275.438 187.055C276.089 187.706 276.479 188.357 276.609 189.008C277.391 190.31 277.846 191.026 277.977 191.156C278.107 191.156 278.237 191.286 278.367 191.547C278.758 192.458 279.018 192.979 279.148 193.109C279.279 193.24 279.474 193.435 279.734 193.695C280.776 194.737 281.297 195.323 281.297 195.453C281.427 195.583 281.622 195.583 281.883 195.453C282.013 195.974 282.143 196.495 282.273 197.016C282.534 197.406 282.794 197.862 283.055 198.383C283.706 199.685 284.096 200.596 284.227 201.117C284.487 201.508 284.878 201.833 285.398 202.094C285.659 203.266 286.115 204.242 286.766 205.023C287.547 205.674 288.068 206.716 288.328 208.148C288.589 208.539 288.784 208.995 288.914 209.516C289.174 209.906 289.435 210.362 289.695 210.883C290.346 211.924 290.607 212.51 290.477 212.641C290.477 212.771 290.542 212.901 290.672 213.031L291.844 215.375C292.495 216.286 292.82 216.938 292.82 217.328C292.82 217.719 292.951 218.174 293.211 218.695C293.602 219.607 293.862 220.258 293.992 220.648C294.122 221.039 294.253 221.495 294.383 222.016C294.643 222.536 294.773 223.057 294.773 223.578C294.904 223.969 295.034 224.359 295.164 224.75C295.685 226.312 296.076 227.224 296.336 227.484C296.466 227.875 296.401 228.266 296.141 228.656C295.88 228.917 295.88 229.242 296.141 229.633C296.401 230.414 296.531 230.935 296.531 231.195C296.661 231.326 296.727 231.521 296.727 231.781C296.857 232.172 296.987 232.628 297.117 233.148C297.378 233.669 297.508 234.125 297.508 234.516C297.247 236.078 297.182 237.12 297.312 237.641C297.443 238.161 297.247 238.552 296.727 238.812C296.987 239.724 297.117 240.505 297.117 241.156C297.247 241.677 297.182 242.393 296.922 243.305C296.531 244.477 296.206 245.128 295.945 245.258C295.815 245.258 295.685 245.388 295.555 245.648C295.164 246.69 294.904 247.341 294.773 247.602C294.773 247.732 294.708 247.862 294.578 247.992C294.188 248.513 293.862 249.294 293.602 250.336C293.341 250.596 293.081 250.922 292.82 251.312C292.56 251.703 292.495 252.224 292.625 252.875C291.974 254.568 291.323 255.935 290.672 256.977C289.76 258.409 289.24 259.451 289.109 260.102C289.109 260.622 288.979 261.078 288.719 261.469L287.547 263.422C286.635 264.724 286.049 265.701 285.789 266.352C285.659 266.872 285.464 267.458 285.203 268.109C284.682 269.281 284.357 270.062 284.227 270.453C284.096 270.844 283.901 271.299 283.641 271.82C283.38 272.471 283.12 273.057 282.859 273.578C282.599 274.099 282.339 274.685 282.078 275.336C281.427 275.596 280.971 276.247 280.711 277.289C279.93 277.68 279.344 278.461 278.953 279.633C278.432 279.893 278.042 280.284 277.781 280.805C277.651 281.195 277.391 281.651 277 282.172C276.089 283.214 275.568 283.799 275.438 283.93C275.438 283.93 275.372 283.93 275.242 283.93C274.982 284.19 274.721 284.581 274.461 285.102C274.331 285.492 274.07 285.818 273.68 286.078C272.898 287.12 272.508 287.771 272.508 288.031C271.076 289.333 270.229 290.18 269.969 290.57C269.448 291.091 268.992 291.547 268.602 291.938C268.211 292.198 267.885 292.654 267.625 293.305C266.583 294.086 265.932 294.802 265.672 295.453C264.76 296.234 264.109 296.755 263.719 297.016C263.328 297.146 263.003 297.471 262.742 297.992C262.221 297.992 261.831 298.122 261.57 298.383C261.31 298.643 261.049 298.904 260.789 299.164C259.617 299.945 258.836 300.271 258.445 300.141L257.273 302.094C256.622 302.615 256.102 302.875 255.711 302.875C255.451 302.875 255.19 303.005 254.93 303.266C254.409 303.786 253.888 304.307 253.367 304.828L251.609 306.195C250.438 306.586 249.396 306.781 248.484 306.781C247.312 307.042 246.596 307.107 246.336 306.977C246.076 306.846 245.815 306.781 245.555 306.781C244.122 306.911 243.211 306.911 242.82 306.781C242.56 306.651 242.234 306.521 241.844 306.391C241.453 306.391 240.737 306.521 239.695 306.781C238.914 306.521 238.133 306.456 237.352 306.586C236.57 306.716 235.724 306.651 234.812 306.391C233.51 306.26 232.339 306.195 231.297 306.195C230.385 306.326 229.669 306.26 229.148 306C228.628 306.13 228.107 306.195 227.586 306.195C227.195 306.326 226.674 306.391 226.023 306.391C225.112 306.26 224.526 306.26 224.266 306.391C224.135 306.521 223.94 306.586 223.68 306.586C222.247 306.586 221.466 306.651 221.336 306.781C221.206 306.911 221.01 306.977 220.75 306.977C219.318 306.977 218.341 307.107 217.82 307.367C217.299 307.237 216.714 307.172 216.062 307.172C215.411 307.172 214.76 307.237 214.109 307.367C212.547 307.628 211.505 307.693 210.984 307.562C210.464 307.562 209.878 307.562 209.227 307.562C207.924 307.693 207.078 307.693 206.688 307.562C206.427 307.562 206.167 307.693 205.906 307.953C205.125 307.432 204.148 307.432 202.977 307.953C201.805 308.474 200.893 308.409 200.242 307.758C199.852 308.018 199.266 308.083 198.484 307.953C197.833 307.823 197.182 307.758 196.531 307.758C195.49 307.888 194.708 307.823 194.188 307.562C192.365 306.651 191.453 306.13 191.453 306C191.453 305.74 191.388 305.284 191.258 304.633C190.997 303.461 190.932 302.81 191.062 302.68C191.193 302.549 191.258 302.354 191.258 302.094V299.75C191.258 299.229 191.258 298.643 191.258 297.992C191.388 297.341 191.518 296.625 191.648 295.844C192.039 293.76 192.169 292.328 192.039 291.547C192.039 290.766 192.104 289.984 192.234 289.203C192.495 287.51 192.56 286.469 192.43 286.078C192.299 284.906 192.234 284.255 192.234 284.125C192.365 283.995 192.43 283.799 192.43 283.539C192.43 282.497 192.365 281.911 192.234 281.781C192.104 281.521 192.039 281.26 192.039 281C192.299 279.568 192.365 278.852 192.234 278.852C192.104 278.721 192.039 278.526 192.039 278.266C192.039 277.484 191.909 276.703 191.648 275.922V273.578C191.518 271.755 191.388 270.583 191.258 270.062C190.867 268.63 190.672 267.589 190.672 266.938C190.802 266.156 190.867 265.505 190.867 264.984C190.737 263.943 190.737 262.836 190.867 261.664C190.867 261.273 190.802 260.688 190.672 259.906C190.542 259.125 190.477 258.409 190.477 257.758C190.346 256.195 190.216 255.349 190.086 255.219C190.086 255.089 190.086 254.893 190.086 254.633V251.312C189.826 250.271 189.695 249.685 189.695 249.555C189.826 249.294 189.891 249.034 189.891 248.773C189.76 247.081 189.76 245.844 189.891 245.062C190.021 244.151 189.76 243.37 189.109 242.719ZM230.516 286.859C231.557 286.99 232.273 286.924 232.664 286.664C233.185 286.404 233.641 286.143 234.031 285.883C235.203 284.841 235.659 284.255 235.398 284.125C235.268 283.995 235.333 283.93 235.594 283.93C237.026 282.628 237.872 281.846 238.133 281.586C238.523 281.195 238.849 280.87 239.109 280.609C240.151 279.307 240.802 278.526 241.062 278.266C241.453 277.875 241.779 277.484 242.039 277.094C242.56 276.312 242.951 275.596 243.211 274.945C243.602 274.164 244.122 273.513 244.773 272.992C244.773 272.341 244.839 271.82 244.969 271.43C245.229 271.039 245.49 270.714 245.75 270.453C246.141 269.411 246.401 268.891 246.531 268.891C246.792 268.891 246.987 268.826 247.117 268.695C247.117 268.044 247.508 267.328 248.289 266.547C248.68 265.896 249.005 265.31 249.266 264.789C249.656 264.138 249.982 263.552 250.242 263.031C250.633 262.25 251.023 261.469 251.414 260.688C251.935 259.776 252.326 258.995 252.586 258.344L253.562 256.391C254.214 254.828 254.734 253.852 255.125 253.461C255.776 251.508 256.362 249.945 256.883 248.773C257.404 247.602 257.924 246.495 258.445 245.453L260.008 243.891C260.268 243.24 260.333 242.589 260.203 241.938C260.203 241.286 260.268 240.831 260.398 240.57C260.659 239.659 260.854 239.138 260.984 239.008C261.115 238.878 261.18 238.682 261.18 238.422C261.44 237.771 261.505 237.25 261.375 236.859C261.375 236.469 261.375 236.078 261.375 235.688C261.245 234.906 261.115 234.19 260.984 233.539C260.984 232.888 261.049 232.237 261.18 231.586C260.659 230.414 260.398 229.633 260.398 229.242C260.398 228.852 260.333 228.526 260.203 228.266C260.073 228.005 259.878 227.68 259.617 227.289C259.487 226.768 259.357 226.378 259.227 226.117C258.706 224.945 258.38 224.294 258.25 224.164C257.469 223.122 257.013 222.406 256.883 222.016C256.883 221.625 256.818 221.299 256.688 221.039C256.036 220.128 255.646 219.542 255.516 219.281C255.385 218.891 255.255 218.565 255.125 218.305C254.474 216.742 254.148 215.831 254.148 215.57C253.497 214.268 253.107 213.552 252.977 213.422C252.977 213.161 252.911 212.901 252.781 212.641C252 211.339 251.544 210.688 251.414 210.688C251.284 210.557 251.154 210.427 251.023 210.297C250.633 209.255 250.307 208.604 250.047 208.344C249.266 206.781 248.81 205.935 248.68 205.805C247.508 204.503 246.792 203.461 246.531 202.68C245.75 201.378 245.099 200.401 244.578 199.75C244.188 199.099 243.862 198.383 243.602 197.602L242.039 195.844C241.388 194.932 240.932 194.216 240.672 193.695C239.891 192.393 239.37 191.547 239.109 191.156C238.068 189.854 237.352 189.073 236.961 188.812C236.701 188.422 236.44 188.096 236.18 187.836C233.706 185.753 231.883 184.125 230.711 182.953C229.539 182.562 228.823 182.367 228.562 182.367C228.302 182.237 228.172 182.107 228.172 181.977C227.13 181.456 226.284 181.195 225.633 181.195C225.112 181.846 224.721 182.172 224.461 182.172C224.201 182.172 224.005 182.367 223.875 182.758C223.875 184.32 223.81 185.232 223.68 185.492C223.68 185.622 223.68 185.818 223.68 186.078C223.68 187.38 223.68 188.227 223.68 188.617C223.81 188.878 223.745 189.138 223.484 189.398C223.484 190.57 223.484 191.482 223.484 192.133C223.615 192.784 223.615 193.435 223.484 194.086V197.211C223.354 197.992 223.289 198.708 223.289 199.359C223.419 199.88 223.484 200.466 223.484 201.117C223.484 201.638 223.484 202.224 223.484 202.875C223.615 203.396 223.615 203.852 223.484 204.242C223.354 205.805 223.354 206.716 223.484 206.977C223.224 208.539 223.159 209.841 223.289 210.883C223.549 211.794 223.745 212.771 223.875 213.812C223.745 216.286 223.68 218.109 223.68 219.281C223.81 220.453 223.81 221.56 223.68 222.602C223.289 225.466 223.224 227.68 223.484 229.242C223.484 230.674 223.484 231.456 223.484 231.586C223.615 231.586 223.615 231.716 223.484 231.977C223.224 233.409 223.094 234.646 223.094 235.688C223.224 236.729 223.289 237.706 223.289 238.617C223.289 239.008 223.224 239.398 223.094 239.789C223.094 240.18 223.094 240.57 223.094 240.961C223.094 241.872 223.159 242.914 223.289 244.086C223.549 245.258 223.68 246.299 223.68 247.211C223.68 248.253 223.68 248.969 223.68 249.359C223.81 249.75 223.94 250.206 224.07 250.727L223.875 253.266C223.875 253.656 223.875 254.047 223.875 254.438C224.005 254.698 224.135 255.023 224.266 255.414C224.266 255.805 224.266 256.195 224.266 256.586C224.266 256.977 224.396 257.302 224.656 257.562C224.396 258.474 224.266 258.995 224.266 259.125C224.396 259.255 224.461 259.451 224.461 259.711C224.591 261.924 224.656 263.292 224.656 263.812C224.786 264.464 224.786 265.18 224.656 265.961C224.656 266.742 224.721 267.458 224.852 268.109C224.852 268.63 224.917 269.151 225.047 269.672C225.177 270.062 225.242 270.388 225.242 270.648C225.242 271.43 225.177 272.146 225.047 272.797C224.917 273.448 225.047 274.099 225.438 274.75C225.307 276.443 225.242 277.549 225.242 278.07C225.242 278.461 225.372 278.786 225.633 279.047C225.242 279.438 225.177 280.023 225.438 280.805C225.698 281.586 225.828 282.237 225.828 282.758C226.089 284.19 226.219 285.297 226.219 286.078C226.87 286.339 227.521 286.534 228.172 286.664C228.953 286.794 229.734 286.859 230.516 286.859Z" fill="#647CA0"/>
</svg>
